<?xml version="1.0" encoding="utf-8"?>
<!-- Generator: Adobe Illustrator 23.1.1, SVG Export Plug-In . SVG Version: 6.00 Build 0)  -->
<svg version="1.1" id="Capa_1" xmlns="http://www.w3.org/2000/svg" xmlns:xlink="http://www.w3.org/1999/xlink" x="0px" y="0px"
	 viewBox="0 0 76 107" style="enable-background:new 0 0 76 107;" xml:space="preserve">
<style type="text/css">
	.st0{fill:#F0F3F5;}
	.st1{fill:#D9DDE0;}
</style>
<g>
	<g transform="translate(-16.000000, -353.000000)">
		<g transform="translate(16.000000, 353.000000)">
			<path class="st0" d="M6,0h64c3.3,0,6,2.7,6,6v95c0,3.3-2.7,6-6,6H6c-3.3,0-6-2.7-6-6V6C0,2.7,2.7,0,6,0z"/>
			<g transform="translate(6.000000, 27.000000)">
				<path class="st1" d="M47.5,46.8c-4.8-1.6-7.2-5.1-8.5-8c6.9-4.1,10.4-13.9,10.4-21.3C49.5,7.8,41.6,0,32,0S14.5,7.8,14.5,17.5
					c0,7.4,3.6,17.2,10.4,21.4c-1.2,2.9-3.7,6.4-8.4,8C8.2,49.5,0,50.4,0,64.2C0,67.4,2.6,70,5.8,70h52.3c3.2,0,5.8-2.6,5.8-5.8l0,0
					l0,0C64,50.6,56.2,49.8,47.5,46.8z"/>
			</g>
		</g>
	</g>
</g>
</svg>
